<?xml version="1.0" encoding="utf-8"?>

<!DOCTYPE svg PUBLIC "-//W3C//DTD SVG 1.1//EN" "http://www.w3.org/Graphics/SVG/1.1/DTD/svg11.dtd">
<svg version="1.1" id="Layer_1" xmlns="http://www.w3.org/2000/svg" xmlns:xlink="http://www.w3.org/1999/xlink" x="0px" y="0px"
	 viewBox="112.299 -41.003 2338.233 1673.901" enable-background="new 112.299 -41.003 2338.233 1673.901" xml:space="preserve">
<g>
	
		<linearGradient id="SVGID_1_" gradientUnits="userSpaceOnUse" x1="1059.1246" y1="1523.5635" x2="1113.8158" y2="986.2233" gradientTransform="matrix(0.9673 0 0 -0.9673 165.9806 1547.7162)">
		<stop  offset="0" style="stop-color:#FFFF00"/>
		<stop  offset="0.2395" style="stop-color:#FDDE09"/>
		<stop  offset="0.5743" style="stop-color:#FAB514"/>
		<stop  offset="0.8394" style="stop-color:#F89C1B"/>
		<stop  offset="1" style="stop-color:#F7931E"/>
	</linearGradient>
	<path fill="url(#SVGID_1_)" d="M1105.282,225.479c20.685-66.923,48.804-121.415,88.191-156.94
		c10.951,143.925,84.382,318.376,163.923,495.816c-2.09,0.476-4.206,0.952-6.296,1.455c-0.079,0-0.159,0.026-0.238,0.053
		c-15.474,3.28-31.16,7.724-47.005,13.014c-0.291,0.106-0.608,0.212-0.899,0.291c-18.067,5.74-36.477,12.38-55.179,19.892
		C1134.538,493.279,1076.899,371.679,1105.282,225.479z"/>
	<path d="M1213.047,613.9c-89.937-81.155-170.377-246.612-147.443-414.423c10.581-77.372,74.489-161.86,156.067-201.696
		c14.02,148.845,77.98,335.596,192.226,556.92c-10.925,1.243-21.982,2.883-33.224,4.92c-5.29,0.794-10.501,1.746-15.501,3.042
		c-2.592,0.555-5.185,1.111-7.777,1.693c-79.541-177.44-152.972-351.891-163.923-495.816
		c-39.387,35.525-67.505,90.016-88.191,156.94c-28.383,146.2,29.256,267.8,142.497,373.581
		C1236.325,603.689,1224.739,608.609,1213.047,613.9z"/>
	
		<linearGradient id="SVGID_2_" gradientUnits="userSpaceOnUse" x1="730.1713" y1="1391.431" x2="638.5636" y2="1457.0605" gradientTransform="matrix(0.9673 0 0 -0.9673 165.9806 1547.7162)">
		<stop  offset="0" style="stop-color:#FFFF00"/>
		<stop  offset="0.2395" style="stop-color:#FDDE09"/>
		<stop  offset="0.5743" style="stop-color:#FAB514"/>
		<stop  offset="0.8394" style="stop-color:#F89C1B"/>
		<stop  offset="1" style="stop-color:#F7931E"/>
	</linearGradient>
	<path fill="url(#SVGID_2_)" d="M829.63,138.575c31.584,15.131,42.614,39.149,42.773,67.876l-50.259-27.325
		c-10.025,1.058-19.971,0.185-29.864-1.905c-6.56-1.376-11.612-6.772-12.538-13.411c-1.852-13.543,1.693-25.182,14.046-33.753
		c4.656-3.227,10.74-3.597,15.845-1.137L829.63,138.575z"/>
	<path d="M1644.753,606.155c204.632-97.105,384.162-195.216,477.749-296.685c43.487,111.733,29.494,217.753-41.874,313.033
		c-68.405,91.286-174.504,138.529-300.177,160.458c-0.185-0.476-0.397-0.979-0.608-1.455c-3.756-10.025-7.856-19.786-12.3-29.309
		c98.666-14.416,188.47-52.137,255.976-127.816c59.94-67.214,83.932-149.639,74.409-240.713
		c-95.624,95.597-242.009,179.9-407.783,259.864h-0.026C1675.887,629.406,1660.783,616.974,1644.753,606.155z"/>
	
		<linearGradient id="SVGID_3_" gradientUnits="userSpaceOnUse" x1="439.3929" y1="808.6757" x2="649.9537" y2="1038.3783" gradientTransform="matrix(0.9673 0 0 -0.9673 165.9806 1547.7162)">
		<stop  offset="0" style="stop-color:#C2C2C2"/>
		<stop  offset="1" style="stop-color:#242424"/>
	</linearGradient>
	<path fill="url(#SVGID_3_)" d="M808.205,554.851h-0.026C745.91,605.11,675.601,686.291,603.36,774.958
		c40.921-91.788,104.036-174.504,190.93-247.511c4.47,9.232,9.099,18.358,13.914,27.378V554.851z"/>
	<path fill="#393333" d="M202.692,490.361c141.201-154.136,309.223-234.153,498.196-256.346
		c19.839,105.914,50.1,204.368,93.402,293.432c-86.895,73.007-150.009,155.723-190.93,247.511
		c-28.383-171.25-98.296-284.491-226.164-316.762C311.383,453.434,252.369,462.481,202.692,490.361z"/>
	<path fill="#393333" d="M972.181,771.81c-53.486,96.1-90.704,196.141-115.886,299.066
		C823.599,895.367,754.295,774.349,603.36,774.958c72.24-88.667,142.55-169.848,204.818-220.107h0.026
		c21.347,40.445,45.603,78.827,73.007,114.96C910.706,708.669,941.126,742.845,972.181,771.81z"/>
	
		<linearGradient id="SVGID_4_" gradientUnits="userSpaceOnUse" x1="1126.8362" y1="559.9615" x2="1463.8945" y2="559.9615" gradientTransform="matrix(0.9673 0 0 -0.9673 165.9806 1547.7162)">
		<stop  offset="0" style="stop-color:#B3B3B3"/>
		<stop  offset="0.5" style="stop-color:#FFFFFF"/>
		<stop  offset="1" style="stop-color:#BEC0C2"/>
	</linearGradient>
	<path fill="url(#SVGID_4_)" d="M1296.058,980.622c70.997,60.178,162.018,92.582,242.035,71.87
		c1.085-21.214,7.327-32.589,19.839-31.98c23.331,1.799,28.145,20.183,21.162,49.174l0.053,0.212
		c-49.888,16.162-106.178,15.025-169.345-4.629c-70.918-25.42-121.441-57.824-153.421-94.275
		c-2.143-24.389,4.497-38.99,23.384-39.969c17.855-0.635,27.325,13.226,22.484,20.5c-1.217,1.825-2.328,3.624-3.28,5.476
		C1295.477,963.613,1293.836,970.755,1296.058,980.622z"/>
	
		<linearGradient id="SVGID_5_" gradientUnits="userSpaceOnUse" x1="1481.7864" y1="571.8375" x2="1547.6174" y2="571.8375" gradientTransform="matrix(0.9673 0 0 -0.9673 165.9806 1547.7162)">
		<stop  offset="0" style="stop-color:#B3B3B3"/>
		<stop  offset="0.5" style="stop-color:#FFFFFF"/>
		<stop  offset="1" style="stop-color:#BEC0C2"/>
	</linearGradient>
	<path fill="url(#SVGID_5_)" d="M1600.044,1016.782c-1.323-1.111-0.899-30.843,2.434-42.561l9.787-0.926
		c16.718-1.243,33.647-2.857,50.761-4.682c-11.269,19.574-27.96,43.09-44.016,50.153
		C1612.186,1021.755,1604.859,1020.802,1600.044,1016.782z"/>
	
		<linearGradient id="SVGID_6_" gradientUnits="userSpaceOnUse" x1="1393.6268" y1="574.3021" x2="1440.1508" y2="574.3021" gradientTransform="matrix(0.9673 0 0 -0.9673 165.9806 1547.7162)">
		<stop  offset="0" style="stop-color:#B3B3B3"/>
		<stop  offset="0.5" style="stop-color:#FFFFFF"/>
		<stop  offset="1" style="stop-color:#BEC0C2"/>
	</linearGradient>
	<path fill="url(#SVGID_6_)" d="M1523.334,975.913c11.798,0.317,23.701,0.317,35.737,0.053c-5.581,13.914-15.13,25.42-31.98,32.43
		c-11.692,0.979-14.522-11.824-12.353-32.404l8.438-0.079L1523.334,975.913L1523.334,975.913z"/>
	
		<linearGradient id="SVGID_7_" gradientUnits="userSpaceOnUse" x1="1200.7388" y1="658.0139" x2="1240.3899" y2="658.0139" gradientTransform="matrix(0.9673 0 0 -0.9673 165.9806 1547.7162)">
		<stop  offset="0" style="stop-color:#B3B3B3"/>
		<stop  offset="0.5" style="stop-color:#FFFFFF"/>
		<stop  offset="1" style="stop-color:#BEC0C2"/>
	</linearGradient>
	<path fill="url(#SVGID_7_)" d="M1333.091,934.648c-5.502-2.857-7.221-30.42-3.968-47.931l36.715,29.415
		C1357.057,931.024,1340.709,938.616,1333.091,934.648z"/>
	<path fill="#393333" d="M1929.16,1126.742c90.704-31.002,184.74-77.055,281.475-135.54
		c124.562,159.32,166.277,343.267,160.246,541.419c-21.505-95.571-111.336-181.593-173.472-187.28
		c-107.818-20.553-210.055,20.262-309.805,87.926C1921.727,1335.766,1942.465,1235.195,1929.16,1126.742z"/>
	
		<linearGradient id="SVGID_8_" gradientUnits="userSpaceOnUse" x1="2005.3519" y1="735.8745" x2="2122.938" y2="701.6926" gradientTransform="matrix(0.9673 0 0 -0.9673 165.9806 1547.7162)">
		<stop  offset="0" style="stop-color:#FFFF00"/>
		<stop  offset="0.2395" style="stop-color:#FDDE09"/>
		<stop  offset="0.5743" style="stop-color:#FAB514"/>
		<stop  offset="0.8394" style="stop-color:#F89C1B"/>
		<stop  offset="1" style="stop-color:#F7931E"/>
	</linearGradient>
	<path fill="url(#SVGID_8_)" d="M2101.309,843.283c24.442-17.379,52.851-21.691,84.858-14.311
		c26.055,10.131,35.234,26.293,28.542,44.439c-6.56,13.014-15.712,18.172-27.113,16.532c-4.47-9.47-13.411-17.855-25.658-20.633
		L2101.309,843.283z"/>
	<path fill="#34332E" d="M1903.925,1134.996c8.385-2.619,16.797-5.37,25.235-8.253c13.305,108.453-7.433,209.023-41.556,306.525
		C1898.899,1315.133,1908.765,1201.575,1903.925,1134.996z"/>
	<path d="M1785.764,779.005c0.212,0.476,0.423,0.979,0.608,1.455c-0.026,0-0.026,0-0.053,0
		C1786.134,779.984,1785.949,779.481,1785.764,779.005z"/>
	
		<linearGradient id="SVGID_9_" gradientUnits="userSpaceOnUse" x1="1989.1482" y1="1210.6813" x2="1644.5941" y2="830.5779" gradientTransform="matrix(0.9673 0 0 -0.9673 165.9806 1547.7162)">
		<stop  offset="0" style="stop-color:#FFFF00"/>
		<stop  offset="0.2395" style="stop-color:#FDDE09"/>
		<stop  offset="0.5743" style="stop-color:#FAB514"/>
		<stop  offset="0.8394" style="stop-color:#F89C1B"/>
		<stop  offset="1" style="stop-color:#F7931E"/>
	</linearGradient>
	<path fill="url(#SVGID_9_)" d="M2097.928,383.667c9.523,91.074-14.469,173.498-74.409,240.713
		c-67.505,75.679-157.31,113.4-255.976,127.816c-18.993-40.815-44.148-76.869-76.287-107.58c-0.37-0.344-0.741-0.714-1.111-1.085
		C1855.919,563.567,2002.305,479.265,2097.928,383.667z"/>
	<path fill="#FFFF00" d="M1697.176,642.116c12.856,12.856,24.944,27.034,36.266,42.535c-11.163-14.734-23.701-29.282-37.403-43.619
		h0.026C1696.435,641.402,1696.806,641.772,1697.176,642.116z"/>
	<path fill="#FFFFFF" d="M1694.981,764.694c1.243,6.692-3.201,13.147-9.893,14.39c-6.719,1.217-13.147-3.201-14.39-9.919
		c-1.243-6.692,3.201-13.147,9.893-14.363C1687.309,753.558,1693.737,757.976,1694.981,764.694z"/>
	<path d="M1685.087,779.084c6.692-1.243,11.136-7.698,9.893-14.39c-1.243-6.719-7.671-11.136-14.39-9.893
		c-6.692,1.217-11.136,7.671-9.893,14.363C1671.941,775.884,1678.369,780.301,1685.087,779.084z M1669.19,750.728
		c13.649-2.513,26.769,6.507,29.282,20.156c2.513,13.649-6.507,26.743-20.156,29.282c-13.649,2.513-26.743-6.507-29.256-20.156
		C1646.52,766.361,1655.567,753.241,1669.19,750.728z"/>
	<path d="M1650.673,603.655c16.03,10.819,31.134,23.251,45.365,37.377c-14.099-13.332-29.547-25.658-46.397-36.9
		C1649.986,603.972,1650.33,603.814,1650.673,603.655z"/>
	
		<linearGradient id="SVGID_10_" gradientUnits="userSpaceOnUse" x1="1515.6099" y1="797.1268" x2="1598.5745" y2="797.1268" gradientTransform="matrix(0.9673 0 0 -0.9673 165.9806 1547.7162)">
		<stop  offset="0" style="stop-color:#8C8CFF"/>
		<stop  offset="0.0478" style="stop-color:#8383FF"/>
		<stop  offset="0.371" style="stop-color:#4B4BFF"/>
		<stop  offset="0.6489" style="stop-color:#2222FF"/>
		<stop  offset="0.8676" style="stop-color:#0909FF"/>
		<stop  offset="1" style="stop-color:#0000FF"/>
	</linearGradient>
	<path fill="url(#SVGID_10_)" d="M1711.645,769.35c4.021,21.796-10.396,42.72-32.166,46.741
		c-21.797,4.021-42.72-10.396-46.741-32.192c-4.021-21.77,10.369-42.693,32.166-46.714
		C1686.701,733.164,1707.624,747.554,1711.645,769.35z M1698.472,770.884c-2.513-13.649-15.633-22.669-29.282-20.156
		c-13.623,2.513-22.669,15.633-20.13,29.282c2.513,13.649,15.607,22.669,29.256,20.156
		C1691.965,797.627,1700.985,784.533,1698.472,770.884z"/>
	
		<linearGradient id="SVGID_11_" gradientUnits="userSpaceOnUse" x1="1447.3917" y1="770.6058" x2="1627.9163" y2="770.6058" gradientTransform="matrix(0.9673 0 0 -0.9673 165.9806 1547.7162)">
		<stop  offset="0" style="stop-color:#F7931E"/>
		<stop  offset="0.1606" style="stop-color:#F89C1B"/>
		<stop  offset="0.4257" style="stop-color:#FAB514"/>
		<stop  offset="0.7605" style="stop-color:#FDDE09"/>
		<stop  offset="1" style="stop-color:#FFFF00"/>
	</linearGradient>
	<path fill="url(#SVGID_11_)" d="M1711.645,769.35c-4.021-21.796-24.944-36.186-46.741-32.166
		c-21.796,4.021-36.186,24.944-32.166,46.714c4.021,21.796,24.944,36.213,46.741,32.192
		C1701.25,812.07,1715.666,791.146,1711.645,769.35z M1567.535,818.127c-8.729-47.402,22.59-92.926,70.018-101.681
		c47.402-8.756,92.926,22.59,101.681,69.992c8.756,47.428-22.59,92.952-70.018,101.708
		C1621.814,896.875,1576.29,865.529,1567.535,818.127z"/>
	<path fill="#393333" d="M1903.925,1134.996c4.841,66.58-5.026,180.138-16.321,298.272
		c-101.496-101.364-238.2-70.442-391.489,22.828c60.416-84.62,99.803-179.9,126.308-286.369l0.053-0.423
		C1711.83,1178.244,1805.867,1165.68,1903.925,1134.996z"/>
	<path fill="#34332E" d="M1599.357,1166.5c7.671,1.084,15.369,2.01,23.119,2.804l-0.053,0.423
		c-26.505,106.469-65.892,201.749-126.308,286.369C1543.966,1343.807,1588.115,1235.83,1599.357,1166.5z"/>
	<path fill="#666666" d="M1929.16,1126.742c-8.438,2.883-16.85,5.634-25.235,8.253c-98.057,30.684-192.094,43.249-281.449,34.308
		c-7.75-0.793-15.448-1.719-23.119-2.804c-51.211-7.354-100.835-21.982-148.687-44.545c44.757,7.195,92.635,6.401,143.343-3.095
		c256.372,14.734,444.684-70.574,568.797-226.191c-1.217-7.909-1.455-15.686-0.873-23.357c12.247,2.777,21.188,11.163,25.658,20.633
		c11.401,1.64,20.553-3.518,27.113-16.532c6.692-18.146-2.487-34.308-28.542-44.439c13.57-7.883,26.214-7.856,38.355,0.212
		c27.457,18.225,28.251,40.233,13.226,65.469c122.579,226.164,203.257,474.813,137.894,678.175
		c-0.106-13.464-1.772-26.928-4.761-40.207c6.031-198.152-35.684-382.099-160.246-541.419
		C2113.9,1049.688,2019.863,1095.741,1929.16,1126.742z"/>
	<path fill="#FFFFFF" d="M1423.372,699.676c-6.825,0-12.353-5.529-12.353-12.327c0-6.825,5.528-12.353,12.353-12.353
		c6.825,0,12.327,5.528,12.327,12.353C1435.698,694.147,1430.196,699.676,1423.372,699.676z"/>
	<path d="M1411.019,687.349c0,6.798,5.528,12.327,12.353,12.327c6.825,0,12.327-5.529,12.327-12.327
		c0-6.825-5.502-12.353-12.327-12.353S1411.019,680.524,1411.019,687.349z M1438.026,694.068c0,13.861-11.242,25.129-25.129,25.129
		c-13.887,0-25.129-11.269-25.129-25.129c0-13.887,11.242-25.129,25.129-25.129C1426.784,668.938,1438.026,680.18,1438.026,694.068z
		"/>
	<path d="M1412.897,552.867c-10.687,2.248-22.114,3.254-33.224,4.92C1390.915,555.75,1401.972,554.11,1412.897,552.867z"/>
	
		<linearGradient id="SVGID_12_" gradientUnits="userSpaceOnUse" x1="1256.0287" y1="852.4968" x2="1316.8726" y2="909.2388" gradientTransform="matrix(0.9673 0 0 -0.9673 165.9806 1547.7162)">
		<stop  offset="0" style="stop-color:#8C8CFF"/>
		<stop  offset="0.0478" style="stop-color:#8383FF"/>
		<stop  offset="0.371" style="stop-color:#4B4BFF"/>
		<stop  offset="0.6489" style="stop-color:#2222FF"/>
		<stop  offset="0.8676" style="stop-color:#0909FF"/>
		<stop  offset="1" style="stop-color:#0000FF"/>
	</linearGradient>
	<path fill="url(#SVGID_12_)" d="M1412.897,719.197c13.887,0,25.129-11.269,25.129-25.129c0-13.887-11.242-25.129-25.129-25.129
		c-13.887,0-25.129,11.242-25.129,25.129C1387.767,707.929,1399.009,719.197,1412.897,719.197z M1411.124,654.813
		c22.167,0,40.128,17.961,40.128,40.128s-17.961,40.128-40.128,40.128c-22.14,0-40.101-17.961-40.101-40.128
		S1388.984,654.813,1411.124,654.813z"/>
	<path fill="#393333" d="M1450.67,1121.955c47.852,22.564,97.475,37.192,148.687,44.545
		c-11.242,69.331-55.39,177.307-103.242,289.596c-13.438-65.151-47.931-104.353-119.933-97.449l-0.582-6.137
		c53.909-38.99,76.79-116.071,66.738-231.984C1445.089,1121.029,1447.866,1121.531,1450.67,1121.955z"/>
	
		<linearGradient id="SVGID_13_" gradientUnits="userSpaceOnUse" x1="1197.4371" y1="801.2386" x2="1331.4304" y2="918.8245" gradientTransform="matrix(0.9673 0 0 -0.9673 165.9806 1547.7162)">
		<stop  offset="0" style="stop-color:#F7931E"/>
		<stop  offset="0.1606" style="stop-color:#F89C1B"/>
		<stop  offset="0.4257" style="stop-color:#FAB514"/>
		<stop  offset="0.7605" style="stop-color:#FDDE09"/>
		<stop  offset="1" style="stop-color:#FFFF00"/>
	</linearGradient>
	<path fill="url(#SVGID_13_)" d="M1387.979,629.472c48.222,0,87.292,39.07,87.292,87.292s-39.07,87.292-87.292,87.292
		c-48.195,0-87.292-39.07-87.292-87.292S1339.784,629.472,1387.979,629.472z M1451.252,694.941
		c0-22.167-17.961-40.128-40.128-40.128c-22.14,0-40.101,17.961-40.101,40.128s17.961,40.128,40.101,40.128
		C1433.291,735.068,1451.252,717.107,1451.252,694.941z"/>
	<path fill="#FFFF00" d="M1356.475,562.681c-2.116,0.397-4.259,0.846-6.375,1.296c2.09-0.503,4.206-0.979,6.296-1.455
		C1356.422,562.575,1356.448,562.628,1356.475,562.681z"/>
	<path fill="#0000FF" d="M1303.015,864.233c-0.026,0.026-0.026,0.079-0.053,0.106c-0.846-0.661-1.693-1.323-2.539-1.984
		L1303.015,864.233z"/>
	<path fill="#D46655" d="M1538.094,1052.492c-80.017,20.712-171.038-11.692-242.035-71.87c-2.222-9.867-0.582-17.009,2.91-23.622
		c45.63-1.587,89.778,20.315,132.233,69.463C1481.698,1025.458,1520.159,1032.256,1538.094,1052.492z"/>
	
		<linearGradient id="SVGID_14_" gradientUnits="userSpaceOnUse" x1="1119.5104" y1="703.4196" x2="1175.3899" y2="703.4196" gradientTransform="matrix(0.9673 0 0 -0.9673 165.9806 1547.7162)">
		<stop  offset="0" style="stop-color:#B3B3B3"/>
		<stop  offset="0.5" style="stop-color:#FFFFFF"/>
		<stop  offset="1" style="stop-color:#BEC0C2"/>
	</linearGradient>
	<path fill="url(#SVGID_14_)" d="M1300.423,862.355c0.847,0.661,1.693,1.323,2.539,1.984
		c-12.618,25.976-26.584,46.741-40.948,42.879c-13.385-3.597-15.951-32.351-10.263-80.335l48.222,35.128L1300.423,862.355z"/>
	
		<radialGradient id="SVGID_15_" cx="1334.499" cy="627.5107" r="201.2923" gradientTransform="matrix(0.9673 0 0 -0.9673 165.9806 1547.7162)" gradientUnits="userSpaceOnUse">
		<stop  offset="0" style="stop-color:#CE3339"/>
		<stop  offset="1" style="stop-color:#822123"/>
	</radialGradient>
	<path fill="url(#SVGID_15_)" d="M1329.123,886.717c-3.254,17.511-1.534,45.074,3.968,47.931
		c7.618,3.968,23.965-3.624,32.748-18.516L1329.123,886.717z M1538.094,1052.492c-17.934-20.236-56.396-27.034-106.892-26.029
		c-42.455-49.148-86.604-71.05-132.233-69.463c0.952-1.852,2.063-3.65,3.28-5.476c4.841-7.274-4.629-21.135-22.484-20.5
		c-18.887,0.979-25.526,15.58-23.384,39.969c-41.477-47.243-51.793-101.311-35.022-155.881c0.952-3.068,4.523-4.55,7.301-2.91
		c23.913,13.993,47.931,31.504,71.315,49.809l-48.222-35.128c-5.687,47.984-3.121,76.737,10.263,80.335
		c14.363,3.862,28.33-16.903,40.948-42.879c53.539,42.191,103.559,87.926,141.227,103.93c25.764,4.55,52.084,6.904,78.986,7.645
		l-8.438,0.079c-2.169,20.58,0.661,33.382,12.353,32.404c16.85-7.01,26.399-18.516,31.98-32.43
		c17.485-0.37,35.234-1.323,53.195-2.672l-9.787,0.926c-3.333,11.718-3.756,41.45-2.434,42.561
		c4.814,4.021,12.141,4.973,18.966,1.984c16.056-7.063,32.748-30.578,44.016-50.153c2.301-0.265,4.603-0.503,6.904-0.767
		c10.607-1.19,19.839,2.248,26.373,6.031c4.153,2.381,4.973,8.015,1.878,11.718c-34.731,41.424-74.304,69.833-119.034,84.302
		l-0.053-0.212c6.983-28.991,2.169-47.375-21.162-49.174C1545.421,1019.903,1539.178,1031.277,1538.094,1052.492z"/>
	
		<radialGradient id="SVGID_16_" cx="1160.8951" cy="246.6014" r="334.6088" gradientTransform="matrix(0.9673 0 0 -0.9673 165.9806 1547.7162)" gradientUnits="userSpaceOnUse">
		<stop  offset="0" style="stop-color:#E5E2DF"/>
		<stop  offset="0" style="stop-color:#F1EFEE"/>
		<stop  offset="0" style="stop-color:#FFFFFF"/>
		<stop  offset="0.4601" style="stop-color:#B3B4B6"/>
		<stop  offset="0.4959" style="stop-color:#ADAEB0"/>
		<stop  offset="0.6364" style="stop-color:#94979A"/>
		<stop  offset="0.9331" style="stop-color:#555E61"/>
		<stop  offset="1" style="stop-color:#465053"/>
	</radialGradient>
	<path fill="url(#SVGID_16_)" d="M1217.073,983.373c60.972,73.272,136.889,120.912,225.265,137.153
		c10.052,115.912-12.829,192.994-66.738,231.984c-11.612,8.412-24.706,15.051-39.202,19.918
		c-50.285,16.929-116.521,8.068-175.588-19.442c-26.346-12.274-51.29-28.251-72.716-47.323
		c-38.302-34.097-59.014-84.435-57.983-132.075c0.555-27.113,8.174-53.354,23.595-75.256c39.36-55.919,98.163-90.942,163.341-114.96
		C1217.046,983.373,1217.046,983.373,1217.073,983.373z"/>
	
		<linearGradient id="SVGID_17_" gradientUnits="userSpaceOnUse" x1="1504.3079" y1="984.1535" x2="1188.4666" y2="487.8316" gradientTransform="matrix(0.9673 0 0 -0.9673 165.9806 1547.7162)">
		<stop  offset="0" style="stop-color:#969696"/>
		<stop  offset="0.0057" style="stop-color:#949494"/>
		<stop  offset="0.1071" style="stop-color:#6C6C6C"/>
		<stop  offset="0.2143" style="stop-color:#4B4B4B"/>
		<stop  offset="0.3294" style="stop-color:#303030"/>
		<stop  offset="0.4537" style="stop-color:#1A1A1A"/>
		<stop  offset="0.5916" style="stop-color:#0C0C0C"/>
		<stop  offset="0.7536" style="stop-color:#030303"/>
		<stop  offset="1" style="stop-color:#000000"/>
	</linearGradient>
	<path fill="url(#SVGID_17_)" d="M1387.979,804.055c48.222,0,87.292-39.07,87.292-87.292s-39.07-87.292-87.292-87.292
		c-48.195,0-87.292,39.07-87.292,87.292S1339.784,804.055,1387.979,804.055z M1739.235,786.438
		c-8.755-47.402-54.279-78.747-101.681-69.992c-47.428,8.756-78.748,54.279-70.018,101.681
		c8.756,47.402,54.28,78.747,101.681,70.018C1716.645,879.39,1747.99,833.866,1739.235,786.438z M1649.642,604.131
		c16.85,11.242,32.298,23.569,46.397,36.9c13.702,14.337,26.24,28.886,37.403,43.619c0.053,0.053,0.079,0.079,0.079,0.132
		c14.231,19.522,27.246,41.159,38.937,64.913c0.026,0.026,0.053,0.053,0.053,0.079s0.026,0.026,0.026,0.053
		c4.629,9.39,9.02,19.125,13.226,29.177c0.185,0.476,0.37,0.979,0.556,1.455c0.026,0,0.026,0,0.053,0
		c26.849,64.569,45.18,142.735,53.936,234.549c-87.741,55.84-170.192,89.619-246.294,103.85
		c-50.708,9.496-98.587,10.29-143.343,3.095c-2.804-0.423-5.581-0.926-8.332-1.428c-88.376-16.242-164.293-63.881-225.265-137.153
		v-0.026c-26.161-31.346-49.518-67.373-69.939-107.659c-5.343-10.475-10.449-21.214-15.316-32.219
		c-21.505-48.169-39.122-101.628-52.666-159.77c45.656-28.383,90.042-52.269,132.895-71.632l0.026,0.026
		c11.771-4.894,23.622-9.602,35.525-14.099c0.132,0.132,0.291,0.265,0.423,0.397c3.386-1.481,6.772-2.936,10.131-4.338
		c34.784-12.803,70.098-23.939,106.019-33.224c5.211-1.085,10.369-2.116,15.501-3.042c11.11-1.666,22.537-2.672,33.224-4.92
		c91.656-10.581,171.991,6.296,237.777,50.788C1650.33,603.814,1649.986,603.972,1649.642,604.131z M1559.255,975.543l-35.922,0.37
		h-0.159c-26.902-0.741-53.221-3.095-78.986-7.645c-37.668-16.003-87.688-61.739-141.227-103.93
		c0.026-0.026,0.026-0.079,0.053-0.106l-2.592-1.878l-0.45-0.344c-23.384-18.305-47.402-35.816-71.315-49.809
		c-2.777-1.64-6.348-0.159-7.301,2.91c-16.771,54.57-6.454,108.638,35.022,155.881c31.98,36.451,82.504,68.854,153.421,94.275
		c63.167,19.654,119.457,20.791,169.345,4.629c44.73-14.469,84.302-42.879,119.034-84.302c3.095-3.703,2.275-9.338-1.878-11.718
		c-6.534-3.783-15.765-7.221-26.373-6.031c-2.301,0.265-4.603,0.503-6.904,0.767c0-0.026,0.026-0.079,0.053-0.106l-50.814,4.788
		c-17.961,1.349-35.71,2.301-53.195,2.672C1559.15,975.834,1559.203,975.675,1559.255,975.543z"/>
	<path fill="#393333" d="M1376.42,1377.401c29.679,62.479,0.899,103.771-69.436,129.932l17.194,77.399l-27.775-60.84l-8.28,72.055
		l-7.936-80.678l-47.614,46.635l52.322-80.784c2.539-3.888,2.301-8.967-0.608-12.565c-36.583-44.995-79.224-80.255-128.848-104.327
		l5.37-11.242c59.067,27.51,125.303,36.371,175.588,19.442c14.496-4.867,27.589-11.507,39.202-19.918l0.582,6.137
		c-0.793,0.079-1.587,0.159-2.407,0.238L1376.42,1377.401z"/>
	<path fill="#393333" d="M1155.44,1364.228c-46.635-22.616-99.433-35.34-159.188-36.927c-5.502-0.132-10.237,3.835-10.978,9.258
		l-11.586,83.165l-5.634-62.823l-53.565,51.925l33.409-52.269l-53.248,21.849l55.232-43.328
		c-49.492-88.932-13.808-136.598,68.431-161.674l11.798,0.185c-1.032,47.64,19.68,97.978,57.983,132.075
		c21.426,19.072,46.37,35.049,72.716,47.323L1155.44,1364.228z"/>
	<path fill="#393333" d="M992.072,789.586c50.656,43.249,102.766,72.637,155.035,86.101h0.026
		c20.421,40.286,43.778,76.314,69.939,107.659v0.026c-0.026,0-0.026,0-0.026,0c-65.178,24.018-123.98,59.041-163.341,114.96
		c-15.422,21.902-23.04,48.143-23.595,75.256l-11.798-0.185c-14.549-93.27-58.009-138.82-162.018-102.528
		C905.125,962.529,951.918,864.524,992.072,789.586z"/>
	<path fill="#666666" d="M1147.107,875.687c-52.269-13.464-104.379-42.852-155.035-86.101c-6.639-5.687-13.279-11.612-19.892-17.776
		c-31.055-28.965-61.474-63.141-90.968-101.999c-27.404-36.133-51.661-74.515-73.007-114.96v-0.026
		c-4.814-9.02-9.443-18.146-13.914-27.378c-43.302-89.064-73.563-187.518-93.402-293.432
		c-188.973,22.193-356.996,102.21-498.196,256.346l-0.026,0.026c-13.649,7.645-26.584,16.718-38.752,27.325
		c108.903-176.964,314.778-298.59,583.266-368.555c8.253-27.034,22.458-42.667,52.481-35.71c17.908,4.126,27.986,11.85,29.97,25.129
		l-19.998-9.655c-5.105-2.46-11.189-2.09-15.845,1.137c-12.353,8.57-15.898,20.209-14.046,33.753
		c0.926,6.639,5.978,12.036,12.538,13.411c9.893,2.09,19.839,2.963,29.864,1.905c-4.603,10.819-12.935,14.707-22.484,16.321
		c-16.321,151.649,15.157,280.259,79.356,380.459c60.152,102.739,144.454,191.856,251.717,268.038l1.085-0.476
		c4.867,11.004,9.972,21.744,15.316,32.219L1147.107,875.687L1147.107,875.687z"/>
	<path fill="none" stroke="#000000" stroke-width="2.7346" stroke-miterlimit="10" d="M1450.67,1121.955
		c-2.804-0.423-5.581-0.926-8.332-1.428c-88.376-16.242-164.293-63.881-225.265-137.153c-0.026,0-0.026,0-0.026,0"/>
	<path fill="none" stroke="#000000" stroke-width="1.8369" stroke-miterlimit="10" d="M202.665,490.388l0.026-0.026
		c141.201-154.136,309.223-234.153,498.196-256.346c19.839,105.914,50.1,204.368,93.402,293.432
		c4.47,9.232,9.099,18.358,13.914,27.378v0.026c21.347,40.445,45.603,78.827,73.007,114.96
		c29.494,38.858,59.914,73.034,90.968,101.999c6.613,6.163,13.252,12.089,19.892,17.776
		c50.656,43.249,102.766,72.637,155.035,86.101"/>
	
		<linearGradient id="SVGID_18_" gradientUnits="userSpaceOnUse" x1="713.0362" y1="495.1365" x2="841.5602" y2="795.9377" gradientTransform="matrix(0.9673 0 0 -0.9673 165.9806 1547.7162)">
		<stop  offset="0" style="stop-color:#C2C2C2"/>
		<stop  offset="1" style="stop-color:#242424"/>
	</linearGradient>
	<path fill="url(#SVGID_18_)" d="M972.181,771.81c-53.486,96.1-90.704,196.141-115.886,299.066
		c48.83-108.347,95.624-206.352,135.778-281.29"/>
	
		<linearGradient id="SVGID_19_" gradientUnits="userSpaceOnUse" x1="1379.6482" y1="91.2012" x2="1499.0571" y2="392.9138" gradientTransform="matrix(0.9673 0 0 -0.9673 165.9806 1547.7162)">
		<stop  offset="0" style="stop-color:#C2C2C2"/>
		<stop  offset="1" style="stop-color:#242424"/>
	</linearGradient>
	<path fill="url(#SVGID_19_)" d="M1599.357,1166.5c-11.242,69.331-55.39,177.307-103.242,289.596
		c60.416-84.62,99.803-179.9,126.308-286.369"/>
	
		<linearGradient id="SVGID_20_" gradientUnits="userSpaceOnUse" x1="1788.3275" y1="121.4755" x2="1816.3568" y2="433.8985" gradientTransform="matrix(0.9673 0 0 -0.9673 165.9806 1547.7162)">
		<stop  offset="0" style="stop-color:#C2C2C2"/>
		<stop  offset="1" style="stop-color:#242424"/>
	</linearGradient>
	<path fill="url(#SVGID_20_)" d="M1903.925,1134.996c4.841,66.58-5.026,180.138-16.321,298.272
		c34.123-97.502,54.861-198.072,41.556-306.525"/>
</g>
</svg>
